<svg width="31" height="31" viewBox="0 0 31 31" fill="none" xmlns="http://www.w3.org/2000/svg">
<rect width="31" height="31" rx="7" fill="#004AAD"/>
<path d="M17.2376 24.9721C16.8892 24.9667 16.5488 24.8675 16.2521 24.685C15.9553 24.5025 15.7132 24.2434 15.5512 23.935L12.617 18.5725C12.5531 18.4498 12.453 18.3497 12.3303 18.2858L6.96775 15.3937C6.62701 15.2086 6.34837 14.9273 6.16664 14.5847C5.9849 14.2422 5.90813 13.8537 5.94591 13.4678C5.98369 13.0818 6.13436 12.7156 6.37907 12.4148C6.62379 12.114 6.95172 11.892 7.32188 11.7765L21.2932 7.11381C21.646 6.98878 22.027 6.96624 22.3921 7.04881C22.7572 7.13137 23.0915 7.31567 23.3562 7.58035C23.6209 7.84504 23.8052 8.17928 23.8877 8.54438C23.9703 8.90948 23.9477 9.2905 23.8227 9.64332L19.1263 23.6231C19.0082 23.9876 18.7853 24.3093 18.4853 24.5478C18.1853 24.7862 17.8217 24.9309 17.4399 24.9637L17.2376 24.9721ZM21.6558 8.31955L7.68444 12.9823C7.55125 13.0251 7.43372 13.1064 7.34669 13.216C7.25965 13.3255 7.20701 13.4584 7.1954 13.5978C7.18282 13.7355 7.21134 13.874 7.27737 13.9955C7.34341 14.1171 7.44398 14.2163 7.5664 14.2808L12.929 17.1728C13.27 17.3537 13.5491 17.6328 13.73 17.9738L16.5967 23.3364C16.6612 23.4588 16.7604 23.5594 16.882 23.6254C17.0036 23.6915 17.142 23.72 17.2797 23.7074C17.4191 23.6958 17.552 23.6431 17.6615 23.5561C17.7711 23.4691 17.8524 23.3515 17.8952 23.2184L22.5833 9.24703C22.6378 9.1173 22.6525 8.97425 22.6254 8.83613C22.5984 8.69801 22.5307 8.5711 22.4312 8.47158C22.3317 8.37205 22.2048 8.30444 22.0667 8.27736C21.9285 8.25028 21.7855 8.26497 21.6558 8.31955Z" fill="white"/>
<path d="M12.9462 18.5893C12.8629 18.5912 12.7801 18.5757 12.7032 18.5437C12.6262 18.5118 12.5568 18.4642 12.4993 18.4038C12.4396 18.3457 12.3922 18.2762 12.3598 18.1995C12.3275 18.1227 12.3108 18.0403 12.3108 17.957C12.3108 17.8737 12.3275 17.7912 12.3598 17.7145C12.3922 17.6377 12.4396 17.5682 12.4993 17.5101L22.415 7.56068C22.538 7.43769 22.7048 7.36859 22.8787 7.36859C23.0527 7.36859 23.2195 7.43769 23.3425 7.56068C23.4655 7.68367 23.5345 7.85049 23.5345 8.02442C23.5345 8.19836 23.4655 8.36517 23.3425 8.48817L13.3931 18.4038C13.3347 18.463 13.2651 18.5098 13.1883 18.5417C13.1116 18.5735 13.0293 18.5897 12.9462 18.5893Z" fill="white"/>
</svg>
